<?xml version="1.0" standalone="no"?>
<!DOCTYPE svg PUBLIC "-//W3C//DTD SVG 20010904//EN"
 "http://www.w3.org/TR/2001/REC-SVG-20010904/DTD/svg10.dtd">
<svg version="1.0" xmlns="http://www.w3.org/2000/svg"
 width="512.000000pt" height="512.000000pt" viewBox="0 0 512.000000 512.000000"
 preserveAspectRatio="xMidYMid meet">
<metadata>
Created by potrace 1.11, written by Peter Selinger 2001-2013
</metadata>
<g transform="translate(0.000000,512.000000) scale(0.100000,-0.100000)"
fill="#000000" stroke="none">
<path d="M0 5076 l0 -44 43 -7 c129 -21 263 -68 346 -122 81 -54 232 -207 275
-282 50 -86 84 -195 88 -280 2 -39 6 -73 9 -76 3 -3 82 2 175 10 93 8 213 18
267 22 104 7 114 11 127 65 5 18 16 60 24 93 22 82 32 305 17 374 -14 65 -61
167 -110 238 l-36 53 -612 0 -613 0 0 -44z"/>
<path d="M1460 5117 c0 -2 14 -31 30 -64 40 -81 69 -195 81 -328 6 -60 12
-116 15 -123 2 -9 23 0 65 29 86 58 209 114 309 140 74 19 103 21 233 17 81
-3 144 -2 140 2 -24 20 -187 143 -243 182 -36 26 -111 69 -166 97 l-101 51
-182 0 c-99 0 -181 -2 -181 -3z"/>
<path d="M2561 5116 c2 -2 45 -37 95 -79 170 -140 409 -394 537 -569 44 -61
167 -246 167 -252 0 -3 15 -29 33 -58 19 -29 61 -109 95 -178 171 -352 265
-676 314 -1075 17 -139 17 -545 0 -685 -73 -619 -290 -1152 -665 -1638 -121
-157 -339 -382 -487 -502 -36 -29 -72 -59 -80 -66 -12 -12 190 -14 1268 -14
l1282 0 0 2560 0 2560 -1282 0 c-705 0 -1279 -2 -1277 -4z"/>
<path d="M2 4508 l3 -392 35 -8 c135 -29 236 -48 262 -48 35 0 125 57 164 103
52 62 68 113 68 217 -1 114 -21 175 -85 253 -84 103 -205 187 -345 240 -116
45 -105 84 -102 -365z"/>
<path d="M2002 4630 c-67 -14 -191 -71 -270 -124 -68 -46 -212 -185 -212 -205
0 -5 58 -48 129 -95 132 -87 241 -171 336 -258 46 -41 55 -56 61 -95 7 -50
-15 -113 -40 -113 -7 0 -39 30 -71 68 -71 84 -120 121 -162 122 -43 0 -49 -14
-23 -55 49 -79 160 -138 340 -179 63 -15 122 -31 130 -35 14 -7 28 -26 75
-103 19 -31 24 -33 85 -36 74 -4 101 -21 131 -87 27 -58 24 -80 -18 -120 -62
-60 -112 -69 -346 -60 -246 9 -254 -1 -48 -62 79 -23 185 -63 237 -89 66 -33
101 -44 118 -40 34 8 71 50 110 126 39 74 56 82 105 48 56 -38 72 -68 83 -154
24 -204 25 -206 85 -280 190 -238 271 -443 313 -794 33 -279 -27 -703 -146
-1029 -20 -53 -38 -104 -41 -114 -9 -30 18 -9 84 64 255 285 415 730 463 1289
13 148 13 486 0 626 -36 399 -94 623 -235 909 -113 228 -232 396 -392 553
-151 148 -290 236 -468 297 -70 24 -99 28 -225 31 -80 2 -164 -1 -188 -6z"/>
<path d="M710 3642 c-31 -16 -112 -71 -181 -124 -143 -108 -217 -143 -289
-135 l-45 5 24 -19 c38 -31 146 -59 226 -59 41 0 86 -5 100 -10 39 -15 83 0
203 69 126 72 195 86 422 86 188 0 258 -20 345 -96 19 -17 35 -26 35 -20 0 14
-52 114 -64 122 -5 4 -36 10 -70 14 -120 13 -239 54 -401 135 -109 55 -123 60
-184 60 -52 0 -77 -6 -121 -28z m-114 -214 c5 -7 -9 -27 -36 -50 -35 -32 -50
-38 -86 -38 -50 0 -57 15 -21 48 49 46 126 68 143 40z"/>
<path d="M250 2883 c0 -310 67 -642 176 -878 38 -84 106 -205 115 -205 4 0 9
96 11 213 4 185 8 221 27 282 69 213 258 424 504 564 32 18 56 35 53 38 -2 3
-38 -3 -78 -12 -106 -24 -325 -22 -443 3 -126 28 -245 70 -347 124 -17 8 -18
-1 -18 -129z"/>
<path d="M1326 2719 c-114 -123 -243 -310 -303 -439 -93 -201 -132 -514 -113
-910 15 -324 13 -690 -5 -813 -30 -200 -95 -380 -180 -498 -19 -27 -35 -51
-35 -54 0 -3 177 -5 394 -5 l394 0 42 48 c113 127 184 266 207 404 15 91 15
100 -5 198 -33 164 -104 294 -310 573 -238 321 -320 469 -357 649 -21 98 -19
171 9 282 44 172 136 337 293 529 58 71 73 107 44 107 -5 0 -39 -32 -75 -71z"/>
<path d="M2393 2751 c-26 -21 -113 -78 -192 -127 -79 -49 -176 -116 -215 -149
-71 -59 -71 -59 -136 -59 -57 0 -132 13 -180 32 -8 3 -60 20 -115 37 -81 26
-100 35 -100 51 0 29 -21 23 -65 -20 -85 -82 -116 -191 -139 -487 -12 -147 -9
-170 37 -244 45 -72 138 -152 309 -264 l167 -111 101 0 c168 1 292 32 588 149
49 19 74 13 101 -22 37 -48 33 -74 -22 -140 -151 -184 -354 -281 -614 -294
-65 -3 -118 -7 -118 -8 0 -1 13 -33 28 -71 16 -38 35 -98 43 -134 17 -79 17
-281 0 -365 -28 -138 -114 -352 -189 -475 -12 -19 -22 -38 -22 -42 0 -5 49 -8
109 -8 60 0 111 3 113 8 2 4 61 36 132 72 305 153 551 348 716 565 156 206
245 437 270 705 23 236 26 299 25 460 -3 246 -49 470 -132 634 -35 70 -123
201 -172 256 l-39 45 -91 1 c-77 0 -95 3 -120 22 l-29 21 -49 -38z m97 -86
c31 -16 50 -62 50 -121 0 -33 -36 -124 -49 -124 -4 0 -15 25 -25 56 -10 30
-24 58 -31 60 -17 7 -117 -21 -169 -48 -52 -26 -130 -101 -150 -143 -9 -18
-16 -53 -16 -78 0 -57 -8 -77 -29 -77 -31 0 -42 37 -40 133 l1 92 52 51 c83
81 225 172 310 199 55 17 62 17 96 0z m4 -807 c10 -40 6 -128 -8 -161 -33 -79
-117 -120 -341 -167 -33 -7 -86 -21 -118 -32 -32 -11 -65 -17 -73 -14 -20 7
-36 53 -36 101 0 90 3 112 16 131 14 18 16 17 55 -25 37 -39 44 -43 75 -38 20
3 80 28 134 56 63 31 116 51 148 54 27 3 50 6 51 6 2 1 12 20 24 44 37 73 61
88 73 45z"/>
<path d="M1 1053 l-1 -1053 225 0 225 0 60 57 c100 93 198 269 241 433 30 110
33 309 7 415 -53 214 -159 408 -393 718 -63 84 -161 213 -217 288 -57 75 -113
149 -125 165 l-22 29 0 -1052z"/>
</g>
</svg>
